<svg width="577" height="175" viewBox="0 0 577 175" fill="none" xmlns="http://www.w3.org/2000/svg">
<g clip-path="url(#clip0_2_242)">
<path d="M139.7 95.2L134.6 125.5H145L139.9 95.2H139.7ZM151.5 80.6L168.9 152H149.1L147.2 139.5H132.4L130.5 152H111L128.1 80.6H151.5ZM211.166 138.6V121.2H216.366C218.1 121.2 219.633 121.933 220.966 123.4C222.3 124.867 222.966 127 222.966 129.8C222.966 132.8 222.3 135.033 220.966 136.5C219.633 137.9 218.1 138.6 216.366 138.6H211.166ZM211.166 108.6V94H215.666C217.6 94 219.066 94.7333 220.066 96.2C221.066 97.6667 221.566 99.4 221.566 101.4C221.566 103.333 221.066 105.033 220.066 106.5C219.066 107.9 217.6 108.6 215.666 108.6H211.166ZM192.566 80.6V152H220.666C224.533 152 227.833 151.5 230.566 150.5C233.3 149.433 235.5 147.967 237.166 146.1C238.9 144.233 240.166 142 240.966 139.4C241.766 136.8 242.166 133.967 242.166 130.9C242.166 129.033 241.9 127.2 241.366 125.4C240.9 123.533 240.133 121.833 239.066 120.3C238 118.767 236.633 117.5 234.966 116.5C233.3 115.433 231.3 114.8 228.966 114.6V114.4C230.966 114 232.666 113.3 234.066 112.3C235.466 111.3 236.6 110.1 237.466 108.7C238.4 107.233 239.066 105.633 239.466 103.9C239.933 102.1 240.166 100.267 240.166 98.4C240.166 93 238.566 88.7 235.366 85.5C232.233 82.2333 227.333 80.6 220.666 80.6H192.566ZM286.488 116.3C286.488 111.5 286.555 107.533 286.688 104.4C286.822 101.2 287.088 98.6667 287.488 96.8C287.955 94.9333 288.588 93.6333 289.388 92.9C290.255 92.1667 291.388 91.8 292.788 91.8C294.188 91.8 295.288 92.1667 296.088 92.9C296.955 93.6333 297.588 94.9333 297.988 96.8C298.455 98.6667 298.755 101.2 298.888 104.4C299.022 107.533 299.088 111.5 299.088 116.3C299.088 121.1 299.022 125.1 298.888 128.3C298.755 131.433 298.455 133.933 297.988 135.8C297.588 137.667 296.955 138.967 296.088 139.7C295.288 140.433 294.188 140.8 292.788 140.8C291.388 140.8 290.255 140.433 289.388 139.7C288.588 138.967 287.955 137.667 287.488 135.8C287.088 133.933 286.822 131.433 286.688 128.3C286.555 125.1 286.488 121.1 286.488 116.3ZM267.288 116.3C267.288 122.967 267.722 128.667 268.588 133.4C269.455 138.067 270.888 141.9 272.888 144.9C274.888 147.833 277.522 149.933 280.788 151.2C284.055 152.467 288.055 153.1 292.788 153.1C297.522 153.1 301.522 152.467 304.788 151.2C308.055 149.933 310.688 147.833 312.688 144.9C314.688 141.9 316.122 138.067 316.988 133.4C317.855 128.667 318.288 122.967 318.288 116.3C318.288 109.633 317.855 103.967 316.988 99.3C316.122 94.5667 314.688 90.7333 312.688 87.8C310.688 84.8 308.055 82.6333 304.788 81.3C301.522 79.9 297.522 79.2 292.788 79.2C288.055 79.2 284.055 79.9 280.788 81.3C277.522 82.6333 274.888 84.8 272.888 87.8C270.888 90.7333 269.455 94.5667 268.588 99.3C267.722 103.967 267.288 109.633 267.288 116.3ZM362.755 80.6H344.155V127.4C344.155 132.4 344.688 136.567 345.755 139.9C346.821 143.233 348.355 145.9 350.355 147.9C352.421 149.9 354.955 151.267 357.955 152C361.021 152.733 364.488 153.1 368.355 153.1C372.288 153.1 375.755 152.733 378.755 152C381.755 151.267 384.255 149.9 386.255 147.9C388.321 145.9 389.888 143.233 390.955 139.9C392.021 136.567 392.555 132.4 392.555 127.4V80.6H373.955V132.1C373.955 135.567 373.455 137.9 372.455 139.1C371.455 140.233 370.088 140.8 368.355 140.8C366.621 140.8 365.255 140.233 364.255 139.1C363.255 137.9 362.755 135.567 362.755 132.1V80.6ZM429.921 96.4V152H448.521V96.4H462.521V80.6H416.121V96.4H429.921Z" fill="#303030"/>
<path d="M33.2 123H36.05V103.98H43.19V101.58H26.06V103.98H33.2V123ZM51.1466 123H53.6966V114.24C53.6966 111.45 55.1966 109.38 58.2866 109.38C60.2366 109.38 61.4366 110.61 61.4366 112.5V123H63.9866V112.8C63.9866 109.47 62.7266 107.13 58.6466 107.13C56.7866 107.13 54.5966 107.91 53.7566 109.77H53.6966V101.58H51.1466V123ZM84.5265 118.08C84.0765 120.09 82.6065 121.11 80.5065 121.11C77.1165 121.11 75.5865 118.71 75.6765 116.01H87.2865C87.4365 112.26 85.7565 107.13 80.2665 107.13C76.0365 107.13 72.9765 110.55 72.9765 115.2C73.1265 119.94 75.4665 123.36 80.4165 123.36C83.8965 123.36 86.3565 121.5 87.0465 118.08H84.5265ZM75.6765 113.76C75.8565 111.39 77.4465 109.38 80.1165 109.38C82.6365 109.38 84.4665 111.33 84.5865 113.76H75.6765ZM113.549 113.19H120.059C122.459 113.19 124.709 113.97 124.709 116.76C124.709 119.1 123.149 120.6 120.689 120.6H113.549V113.19ZM110.699 123H121.049C125.309 123 127.559 120 127.559 116.85C127.559 114.21 126.119 112.23 123.479 111.69V111.63C125.459 110.82 126.659 109.11 126.659 106.83C126.659 104.73 125.549 103.2 124.139 102.36C122.849 101.58 120.359 101.58 118.469 101.58H110.699V123ZM113.549 103.98H119.249C121.709 103.98 123.809 104.4 123.809 107.37C123.809 109.62 122.489 110.79 119.249 110.79H113.549V103.98ZM146.416 117.6C146.416 119.01 145.036 121.11 141.676 121.11C140.116 121.11 138.676 120.51 138.676 118.83C138.676 116.94 140.116 116.34 141.796 116.04C143.506 115.74 145.426 115.71 146.416 114.99V117.6ZM150.556 120.96C150.226 121.08 149.986 121.11 149.776 121.11C148.966 121.11 148.966 120.57 148.966 119.37V111.39C148.966 107.76 145.936 107.13 143.146 107.13C139.696 107.13 136.726 108.48 136.576 112.32H139.126C139.246 110.04 140.836 109.38 142.996 109.38C144.616 109.38 146.446 109.74 146.446 111.96C146.446 113.88 144.046 113.7 141.226 114.24C138.586 114.75 135.976 115.5 135.976 119.01C135.976 122.1 138.286 123.36 141.106 123.36C143.266 123.36 145.156 122.61 146.566 120.96C146.566 122.64 147.406 123.36 148.726 123.36C149.536 123.36 150.106 123.21 150.556 122.94V120.96ZM157.94 118.11C158.09 121.95 161.03 123.36 164.51 123.36C167.66 123.36 171.11 122.16 171.11 118.47C171.11 115.47 168.59 114.63 166.04 114.06C163.67 113.49 160.97 113.19 160.97 111.36C160.97 109.8 162.74 109.38 164.27 109.38C165.95 109.38 167.69 110.01 167.87 111.99H170.42C170.21 108.21 167.48 107.13 164.06 107.13C161.36 107.13 158.27 108.42 158.27 111.54C158.27 114.51 160.82 115.35 163.34 115.92C165.89 116.49 168.41 116.82 168.41 118.8C168.41 120.75 166.25 121.11 164.66 121.11C162.56 121.11 160.58 120.39 160.49 118.11H157.94ZM180.08 123H182.63V107.49H180.08V123ZM182.63 101.58H180.08V104.7H182.63V101.58ZM205.75 112.47C205.39 108.78 202.57 107.13 199.06 107.13C194.14 107.13 191.74 110.79 191.74 115.44C191.74 120.06 194.26 123.36 199 123.36C202.9 123.36 205.27 121.11 205.84 117.33H203.23C202.9 119.67 201.43 121.11 198.97 121.11C195.73 121.11 194.44 118.29 194.44 115.44C194.44 112.29 195.58 109.38 199.27 109.38C201.37 109.38 202.72 110.52 203.11 112.47H205.75ZM213.703 118.11C213.853 121.95 216.793 123.36 220.273 123.36C223.423 123.36 226.873 122.16 226.873 118.47C226.873 115.47 224.353 114.63 221.803 114.06C219.433 113.49 216.733 113.19 216.733 111.36C216.733 109.8 218.503 109.38 220.033 109.38C221.713 109.38 223.453 110.01 223.633 111.99H226.183C225.973 108.21 223.243 107.13 219.823 107.13C217.123 107.13 214.033 108.42 214.033 111.54C214.033 114.51 216.583 115.35 219.103 115.92C221.653 116.49 224.173 116.82 224.173 118.8C224.173 120.75 222.013 121.11 220.423 121.11C218.323 121.11 216.343 120.39 216.253 118.11H213.703ZM249.263 112.29C249.263 118.11 252.713 123.51 259.523 123.51C266.333 123.51 269.783 118.11 269.783 112.29C269.783 106.47 266.333 101.07 259.523 101.07C252.713 101.07 249.263 106.47 249.263 112.29ZM252.113 112.29C252.113 107.97 254.303 103.47 259.523 103.47C264.743 103.47 266.933 107.97 266.933 112.29C266.933 116.61 264.743 121.11 259.523 121.11C254.303 121.11 252.113 116.61 252.113 112.29ZM279.886 123H282.436V109.74H285.436V107.49H282.436V105.33C282.436 103.98 283.156 103.59 284.386 103.59C284.836 103.59 285.376 103.65 285.826 103.8V101.58C285.346 101.43 284.656 101.34 284.176 101.34C281.386 101.34 279.886 102.66 279.886 105.18V107.49H277.276V109.74H279.886V123ZM308.483 123H311.333V113.19H322.613V123H325.463V101.58H322.613V110.79H311.333V101.58H308.483V123ZM346.423 118.08C345.973 120.09 344.503 121.11 342.403 121.11C339.013 121.11 337.483 118.71 337.573 116.01H349.183C349.333 112.26 347.653 107.13 342.163 107.13C337.933 107.13 334.873 110.55 334.873 115.2C335.023 119.94 337.363 123.36 342.313 123.36C345.793 123.36 348.253 121.5 348.943 118.08H346.423ZM337.573 113.76C337.753 111.39 339.343 109.38 342.013 109.38C344.533 109.38 346.363 111.33 346.483 113.76H337.573ZM367.426 117.6C367.426 119.01 366.046 121.11 362.686 121.11C361.126 121.11 359.686 120.51 359.686 118.83C359.686 116.94 361.126 116.34 362.806 116.04C364.516 115.74 366.436 115.71 367.426 114.99V117.6ZM371.566 120.96C371.236 121.08 370.996 121.11 370.786 121.11C369.976 121.11 369.976 120.57 369.976 119.37V111.39C369.976 107.76 366.946 107.13 364.156 107.13C360.706 107.13 357.736 108.48 357.586 112.32H360.136C360.256 110.04 361.846 109.38 364.006 109.38C365.626 109.38 367.456 109.74 367.456 111.96C367.456 113.88 365.056 113.7 362.236 114.24C359.596 114.75 356.986 115.5 356.986 119.01C356.986 122.1 359.296 123.36 362.116 123.36C364.276 123.36 366.166 122.61 367.576 120.96C367.576 122.64 368.416 123.36 369.736 123.36C370.546 123.36 371.116 123.21 371.566 122.94V120.96ZM380.09 123H382.64V101.58H380.09V123ZM396.13 102.84H393.58V107.49H390.94V109.74H393.58V119.61C393.58 122.46 394.63 123 397.27 123H399.22V120.75H398.05C396.46 120.75 396.13 120.54 396.13 119.37V109.74H399.22V107.49H396.13V102.84ZM408.053 123H410.603V114.24C410.603 111.45 412.103 109.38 415.193 109.38C417.143 109.38 418.343 110.61 418.343 112.5V123H420.893V112.8C420.893 109.47 419.633 107.13 415.553 107.13C413.693 107.13 411.503 107.91 410.663 109.77H410.603V101.58H408.053V123ZM443.563 107.49H440.863L436.513 120.18H436.453L431.923 107.49H429.043L435.193 122.91L434.143 125.55C433.663 126.45 433.093 126.96 432.043 126.96C431.533 126.96 431.023 126.75 430.543 126.6V128.94C431.113 129.15 431.713 129.21 432.313 129.21C434.593 129.21 435.643 128.1 436.813 125.07L443.563 107.49ZM466.492 123H469.342V113.19H479.182V110.79H469.342V103.98H480.562V101.58H466.492V123ZM488.459 115.26C488.459 119.79 491.069 123.36 495.989 123.36C500.909 123.36 503.519 119.79 503.519 115.26C503.519 110.7 500.909 107.13 495.989 107.13C491.069 107.13 488.459 110.7 488.459 115.26ZM491.159 115.26C491.159 111.48 493.319 109.38 495.989 109.38C498.659 109.38 500.819 111.48 500.819 115.26C500.819 119.01 498.659 121.11 495.989 121.11C493.319 121.11 491.159 119.01 491.159 115.26ZM511.685 115.26C511.685 119.79 514.295 123.36 519.215 123.36C524.135 123.36 526.745 119.79 526.745 115.26C526.745 110.7 524.135 107.13 519.215 107.13C514.295 107.13 511.685 110.7 511.685 115.26ZM514.385 115.26C514.385 111.48 516.545 109.38 519.215 109.38C521.885 109.38 524.045 111.48 524.045 115.26C524.045 119.01 521.885 121.11 519.215 121.11C516.545 121.11 514.385 119.01 514.385 115.26ZM549.612 101.58H547.062V109.56H547.002C545.862 107.73 543.582 107.13 541.992 107.13C537.252 107.13 534.912 110.82 534.912 115.2C534.912 119.58 537.282 123.36 542.052 123.36C544.182 123.36 546.162 122.61 547.002 120.9H547.062V123H549.612V101.58ZM537.612 115.38C537.612 112.35 538.782 109.38 542.262 109.38C545.772 109.38 547.152 112.2 547.152 115.26C547.152 118.17 545.832 121.11 542.412 121.11C539.112 121.11 537.612 118.29 537.612 115.38Z" fill="#D9D9D9"/>
</g>
<defs>
<clipPath id="clip0_2_242">
<rect width="577" height="175" fill="white"/>
</clipPath>
</defs>
</svg>
